<svg width="50" height="50" viewBox="0 0 50 50" fill="none" xmlns="http://www.w3.org/2000/svg">
<g clip-path="url(#clip0_0_1)">
<path d="M0 3C0 3 0.0389278 3 0.0444889 3.04355C0.0472722 3.08705 0.0472722 3.13068 0.0444889 3.17418" fill="#724A25"/>
<path d="M2.7027 28.4417C2.7305 26.5801 2.76387 24.9145 2.79168 23.2488C2.79168 22.8732 2.79168 22.4977 2.79168 22.1221C2.78752 22.0706 2.7682 22.0215 2.73607 21.9806C2.47469 21.6594 2.17995 21.3491 1.95751 21.0225C1.22897 20.0777 0.758173 18.9669 0.589475 17.7947C0.362812 16.249 0.688938 14.6741 1.51262 13.3367C2.23454 12.1548 3.17791 11.1169 4.29318 10.2776C5.85029 9.10069 7.58596 8.16952 9.43721 7.51788C11.0041 6.93791 12.6269 6.51481 14.2809 6.25505C15.0847 6.11 15.896 6.00824 16.7112 5.95023C17.8567 5.89035 19.0079 5.90124 20.1535 5.90124C20.9654 5.90124 21.7718 5.90124 22.5837 5.96656C23.3956 6.03188 24.252 6.08087 25.0695 6.18429C26.1817 6.32037 27.2495 6.48911 28.3339 6.67418C29.8354 6.93001 31.3258 7.25116 32.7828 7.60497C35.2045 8.18174 37.592 8.88862 39.9344 9.72239C41.648 10.3187 43.3199 11.0242 44.9394 11.8344C46.1324 12.4272 47.2092 13.2214 48.1203 14.1804C48.917 14.9819 49.4913 15.9693 49.7887 17.049C50.0185 17.889 50.0431 18.7702 49.8605 19.6212C49.6779 20.4723 49.2933 21.2693 48.7376 21.9479C48.2391 22.6201 47.6302 23.2068 46.9358 23.6843C46.9067 23.698 46.8822 23.7197 46.8654 23.7468C46.8486 23.7738 46.8402 23.8051 46.8413 23.8367C46.8153 26.7071 46.7838 29.5775 46.7467 32.4479C46.7467 33.8523 46.7078 35.2621 46.6633 36.6664C46.6724 37.354 46.6166 38.041 46.4965 38.7185C46.4144 39.1189 46.2413 39.4961 45.9901 39.8221C45.7388 40.1481 45.4158 40.4146 45.045 40.6019C44.785 40.7116 44.5124 40.7901 44.2331 40.8359L37.9212 42.2784C36.138 42.6812 34.3473 43.0749 32.5492 43.4596C30.6417 43.8732 28.7232 44.276 26.8101 44.6788C26.3041 44.7877 25.798 44.8911 25.2864 44.9837C25.1017 45.0055 24.915 45.0055 24.7303 44.9837C24.1352 44.9401 23.5458 44.8802 22.9563 44.8258C21.0963 44.5887 19.2721 44.1336 17.5231 43.4705C15.1985 42.6921 12.9185 41.7939 10.6495 40.8958C9.05164 40.2499 7.45931 39.5894 5.87254 38.9145C5.3884 38.6928 4.91687 38.4457 4.46001 38.1742C3.90024 37.8371 3.45812 37.3417 3.19208 36.7535C2.87868 36.0892 2.71192 35.3677 2.7027 34.6361C2.6026 32.5023 2.69158 30.374 2.7027 28.4417ZM34.9238 11.9432C34.0674 11.9813 33.2555 12.0031 32.4825 12.0575C31.4828 12.1311 30.4878 12.2565 29.5017 12.4331C27.9821 12.6984 26.4922 13.1068 25.0528 13.6524C23.2424 14.3153 21.6212 15.3943 20.3259 16.7986C19.6246 17.5436 19.0803 18.4166 18.7243 19.3678C18.5029 19.9341 18.4169 20.5424 18.4728 21.1462C18.5288 21.7501 18.7251 22.3334 19.0468 22.8515C19.5216 23.6288 20.2447 24.2314 21.1044 24.5661C21.556 24.7412 22.0163 24.8939 22.4836 25.0233C22.6327 25.0603 22.7671 25.1402 22.8692 25.2528C22.9713 25.3654 23.0366 25.5054 23.0564 25.6547C23.1277 26.1016 23.1686 26.5525 23.1787 27.0047C23.1787 29.0078 23.1454 31.0163 23.1342 32.9922C23.1342 35.5324 23.1342 38.0726 23.1342 40.6128C23.115 41.118 23.232 41.6192 23.4735 42.0661C23.599 42.3444 23.8201 42.5708 24.0985 42.7061C24.3769 42.8413 24.6949 42.8768 24.9972 42.8064C26.5432 42.4852 28.0892 42.1804 29.6296 41.8538C31.4537 41.4728 33.2722 41.0754 35.0906 40.6781C37.5153 40.1337 39.9399 39.6166 42.359 39.0723C42.9151 38.9471 43.4712 38.7675 44.0274 38.6151C44.1074 38.5941 44.1792 38.5503 44.2337 38.4892C44.2881 38.4282 44.3228 38.3526 44.3332 38.2722C44.3516 38.2024 44.3646 38.1315 44.3721 38.0599C44.4055 37.5537 44.4556 37.042 44.4667 36.5358C44.5 35.3655 44.5279 34.2006 44.539 33.0303C44.5723 30.5428 44.5946 28.0498 44.6224 25.5622C44.6091 24.8351 44.6426 24.1079 44.7225 23.3849C44.7397 23.1429 44.8068 22.9067 44.9195 22.6907C45.0323 22.4746 45.1885 22.2831 45.3787 22.1275C45.4955 22.0459 45.6067 21.9588 45.7291 21.8771C46.3141 21.4796 46.8131 20.9727 47.1972 20.3857C47.5046 19.9327 47.6981 19.415 47.7619 18.8748C47.8257 18.3346 47.758 17.7873 47.5642 17.2776C47.2875 16.5169 46.8211 15.8358 46.2073 15.2963C45.4131 14.579 44.5014 13.9975 43.5102 13.5762C41.5923 12.7545 39.547 12.254 37.4597 12.0956C36.5866 12.0031 35.7246 11.9868 34.9238 11.9432ZM32.3156 9.82037V9.76594C32.236 9.73041 32.1543 9.69951 32.071 9.6734L30.4026 9.30326C28.2007 8.81861 25.9728 8.45515 23.7293 8.21462C22.8061 8.12208 21.883 8.04588 20.9487 8.00777C18.9684 7.92855 16.9849 8.03793 15.0261 8.33437C13.6406 8.53899 12.2751 8.85765 10.9443 9.28693C9.17436 9.83648 7.50405 10.6558 5.99488 11.7146C5.09503 12.3323 4.31374 13.1007 3.68702 13.9844C3.13013 14.7762 2.80687 15.7028 2.75275 16.6625C2.70889 17.699 3.02011 18.7202 3.63697 19.5638C3.83869 19.8532 4.10734 20.0919 4.42108 20.2605C4.66577 20.402 4.91602 20.5435 5.16627 20.6687C7.04037 21.6104 8.93671 22.5086 10.872 23.325C12.7885 24.1686 14.7732 24.855 16.8057 25.3771C17.3062 25.4969 17.8123 25.5949 18.3128 25.6983C18.3809 25.7085 18.4503 25.7085 18.5185 25.6983C18.4903 25.6403 18.4588 25.584 18.424 25.5295C18.3559 25.453 18.2835 25.3803 18.2071 25.3118C18.0569 25.1703 17.9068 25.0342 17.7733 24.8818C17.1006 24.129 16.6267 23.2263 16.393 22.2527C16.1594 21.2791 16.1731 20.2642 16.4331 19.297C16.711 18.106 17.2562 16.9904 18.0291 16.0311C19.1084 14.6589 20.4635 13.5177 22.0109 12.6781C24.4287 11.3875 27.0673 10.5407 29.7965 10.1796C30.5361 10.0653 31.2757 9.98367 32.0209 9.88569C32.121 9.86936 32.2267 9.86936 32.3156 9.82037ZM5.13847 23.14C5.13847 23.1998 5.13847 23.2379 5.1051 23.2706C5.1051 23.7605 5.04949 24.2504 5.03281 24.7348C5.03281 25.7527 4.97164 26.7652 4.96051 27.7776C4.92715 29.6991 4.89934 31.6205 4.88822 33.542C4.88738 34.0984 4.91709 34.6544 4.9772 35.2076C4.9918 35.4514 5.07136 35.6872 5.20795 35.8916C5.34453 36.0959 5.53339 36.2617 5.75575 36.3725C6.49538 36.7372 7.23501 37.091 7.9802 37.4176C10.5754 38.5389 13.2002 39.5858 15.8547 40.5583C17.2395 41.07 18.6353 41.5381 20.0311 42.0171C20.2853 42.1038 20.5482 42.164 20.8153 42.1967C21.0655 42.2348 21.1156 42.1967 21.0433 41.9246C20.8233 41.1455 20.735 40.3365 20.7819 39.5295C20.8153 38.3865 20.8486 37.2434 20.8597 36.1003C20.8931 33.4767 20.9098 30.8585 20.9376 28.2403V28.1205C20.4315 28.0933 19.9422 28.077 19.4583 28.0334C18.3745 27.931 17.3 27.749 16.244 27.4891C14.1149 26.9634 12.035 26.2624 10.0267 25.3935C8.64753 24.8056 7.30174 24.1579 5.94483 23.5373L5.13847 23.14Z" fill="#724A25"/>
<path d="M28.8511 34.0809C28.8288 35.282 28.8084 36.485 28.7899 37.6897C28.7905 37.7318 28.7819 37.7735 28.7646 37.812C28.7473 37.8505 28.7218 37.8849 28.6898 37.9129C28.497 38.1357 28.2418 38.2984 27.9557 38.381C27.6584 38.4618 27.341 38.4308 27.066 38.2939C26.9354 38.2367 26.8248 38.1433 26.7477 38.0253C26.6707 37.9073 26.6305 37.7699 26.6322 37.6299C26.6322 37.1672 26.5877 36.7045 26.5933 36.2364C26.6155 34.7849 26.6452 33.3188 26.6822 31.8383C26.6822 31.2395 26.7378 30.6462 26.7823 30.0474C26.8064 29.8324 26.8473 29.6195 26.9047 29.4106C26.9376 29.3064 26.9928 29.2103 27.0666 29.1286C27.1405 29.047 27.2312 28.9816 27.3329 28.937C27.5274 28.8398 27.7484 28.8053 27.9642 28.8385C28.18 28.8718 28.3795 28.971 28.5341 29.1221C28.622 29.1938 28.6926 29.2838 28.7406 29.3854C28.7887 29.4871 28.8131 29.5979 28.8121 29.71C28.8455 30.2543 28.8789 30.7714 28.8844 31.3048C28.8844 32.2247 28.8844 33.1392 28.8844 34.0591L28.8511 34.0809Z" fill="#724A25"/>
<path d="M20.8041 20.0101C20.8004 19.2359 21.0077 18.4747 21.4045 17.8049C21.8014 17.1352 22.3735 16.5811 23.0619 16.1998C23.6044 15.8756 24.1928 15.6316 24.8081 15.4759C24.9453 15.4345 25.0902 15.424 25.232 15.4453C25.3739 15.4665 25.509 15.5189 25.6272 15.5985C25.7454 15.678 25.8437 15.7828 25.9147 15.9049C25.9857 16.0269 26.0276 16.1631 26.0371 16.3033C26.0745 16.4988 26.0564 16.7006 25.9848 16.8867C25.9133 17.0729 25.7909 17.2363 25.6312 17.3592C25.4361 17.524 25.2064 17.6448 24.9583 17.7131C24.3254 17.8902 23.7738 18.2744 23.3956 18.8017C23.1805 19.1056 23.0531 19.4606 23.0267 19.8294C23.0003 20.1981 23.0758 20.567 23.2455 20.8973C23.3511 21.1368 23.4846 21.3655 23.5902 21.605C23.6543 21.7414 23.7046 21.8836 23.7404 22.0295C23.783 22.1944 23.7694 22.3684 23.7015 22.5249C23.5842 22.7761 23.3871 22.9834 23.1395 23.1159C22.8919 23.2483 22.6072 23.2988 22.3279 23.2597C22.1813 23.233 22.0503 23.1533 21.9608 23.0365C21.4256 22.4103 21.062 21.661 20.9042 20.8592C20.8542 20.5762 20.8375 20.2877 20.8041 20.0101Z" fill="#724A25"/>
</g>
<defs>
<clipPath id="clip0_0_1">
<rect width="50" height="42" fill="white" transform="translate(0 3)"/>
</clipPath>
</defs>
</svg>
