<?xml version="1.0" encoding="utf-8"?>
<!-- Svg Vector Icons : http://www.onlinewebfonts.com/icon -->
<!DOCTYPE svg PUBLIC "-//W3C//DTD SVG 1.1//EN" "http://www.w3.org/Graphics/SVG/1.1/DTD/svg11.dtd">
<svg version="1.1" xmlns="http://www.w3.org/2000/svg" xmlns:xlink="http://www.w3.org/1999/xlink" x="0px" y="0px" viewBox="0 0 1000 1000" enable-background="new 0 0 1000 1000" xml:space="preserve">
<metadata> Svg Vector Icons : http://www.onlinewebfonts.com/icon </metadata>
<g><g transform="translate(0.000000,511.000000) scale(0.100000,-0.100000)"><path d="M3250.4,4055C1768,3908.8,554.3,3235.5,199.4,2363.7C8.9,1888.7,95,1358.9,434.3,941.3l117.4-143.5L530.8-481.1c-20.9-1362.4-13-1472,99.2-1701.7c112.2-234.9,229.7-313.2,890-589.8c1409.4-592.5,2171.5-871.7,2698.7-994.4c182.7-41.7,699.5-93.9,780.4-80.9c415,73.1,3823.5,837.8,3909.7,879.6c65.2,31.3,148.8,99.2,190.5,159.2c143.5,198.3,148.8,245.3,164.4,1819.1l15.7,1448.5l70.5,52.2c148.8,107,344.5,336.7,422.8,493.3c347.1,709.9-28.7,1456.3-963.1,1913.1C7729,3444.2,6176.2,3874.9,4790.3,4034.1C4471.8,4068,3527.1,4083.7,3250.4,4055z M4411.8,3629.6c456.7-36.5,947.4-109.6,1487.7-221.8c634.2-135.7,623.8-127.9,198.4-180.1c-673.4-80.9-1297.2-274-1746.1-535C3451.4,2168,3031.2,1338,3289.6,602c54.8-159.2,180.1-344.5,302.8-454.1c125.3-114.8,104.4-117.4-250.6-31.3c-532.4,130.5-1161.4,381-2014.9,801.3c-485.4,240.1-535,271.4-610.7,378.4c-334.1,485.4-193.1,1064.8,370.6,1519C1838.4,3426,3075.5,3728.7,4411.8,3629.6z M7397.6,2820.5c957.8-86.1,1725.2-451.5,1973.1-939.6c107-211.4,120-443.7,33.9-631.6c-78.3-167-195.8-308-352.3-415C8853.9,696,8835.7,633.4,8835.7,20c0-292.3-7.8-976.1-18.3-1516.4c-13-863.9-20.9-991.8-60-1038.7c-36.6-44.4-360.2-125.3-1920.9-467.2c-1030.9-229.7-1907.9-415-1947-415c-120,0-201,54.8-261,180.1c-57.4,114.9-60,151.4-60,694.3c0,315.8,5.2,1033.5,13,1597.3c13.1,1171.9,26.1,1096.2-229.7,1171.9c-412.4,117.4-652.5,373.2-699.5,733.4c-60,477.6,391.5,1093.6,1046.6,1425C5401,2736.9,6437.1,2904,7397.6,2820.5z M1319.1,432.4c1025.7-514.2,1999.2-824.8,2685.6-856l143.5-5.2l-5.2-835.2c-2.6-459.4-13.1-1033.5-20.9-1278.9c-13-352.3-7.8-475,23.5-592.5c39.2-148.8,39.2-151.4-15.6-151.4c-229.7,0-2915.3,1075.3-3051,1221.4C951-1929.6,948.4-1890.4,969.3-611.6C979.8,40.9,998,575.9,1011.1,575.9C1021.5,575.9,1162.5,510.7,1319.1,432.4z"/><path d="M4761.5,2079.3c-297.5-122.7-451.5-258.4-561.1-498.5c-130.5-281.9-99.2-621.2,80.9-892.6c80.9-120,101.8-138.3,180.1-138.3c107,0,214,80.9,237.5,177.5c10.4,54.8-5.2,114.8-65.2,224.5c-88.7,172.3-101.8,313.2-36.5,448.9c54.8,117.4,206.2,240.1,336.7,276.7c206.2,57.4,284.5,245.3,167.1,396.7C5033,2157.6,4954.7,2160.2,4761.5,2079.3z"/><path d="M5424.5-598.5c-125.3-49.6-130.5-91.3-151.4-965.7c-15.7-796-15.7-827.4,33.9-887.4c70.5-86.1,237.5-88.8,326.2-5.2l62.7,60l15.6,811.7c15.7,884.8,13,918.7-125.3,981.3C5508-567.2,5502.8-567.2,5424.5-598.5z"/></g></g>
</svg>